<svg width="73" height="73" viewBox="0 0 73 73" fill="none" xmlns="http://www.w3.org/2000/svg">
<path d="M24.6682 3.27019L3.2793 26.8826V69.7207H69.7207V26.925L50.8043 3.27931C42.0926 3.23141 33.3795 3.34946 24.6682 3.27019ZM27.9748 5.84572H38.1645L54.3615 26.0918H46.1965L27.9748 5.84572ZM41.4513 5.84572H49.5707L65.7677 26.0918H57.6479L41.4513 5.84572ZM25.0938 6.4809L44.3418 27.8673V67.1543H5.8457V27.8673L25.0938 6.4809ZM31.7487 21.4034C27.7525 21.5764 24.607 23.3017 22.2512 25.5822C19.5279 28.2185 17.9005 31.6211 17.4263 34.0347C16.3942 39.2877 18.8247 42.8549 21.8562 44.0789C21.8591 44.0501 21.8632 44.0538 21.8565 44.0447C20.7862 38.5059 22.4431 33.2216 25.9514 29.722C23.3015 33.795 22.9581 39.8214 24.5683 44.5434C25.2506 44.5026 25.9193 44.3358 26.5408 44.0514C28.0116 43.3773 29.3374 42.0065 30.1643 39.6983C31.0451 37.2391 30.2902 33.2763 29.9872 29.5111C29.8358 27.6287 29.807 25.783 30.2569 24.1355C30.5341 23.1213 31.0164 22.1822 31.7487 21.4034ZM46.9082 28.6582H55.748V44.3418H46.9082V28.6582ZM58.3145 28.6582H67.1543V44.3418H58.3145V28.6582ZM11.1459 34.7195C8.88632 37.258 8.04269 40.1993 7.99664 43.0061C7.94246 46.313 9.04074 49.4214 10.232 51.1958C12.8031 55.0255 16.4659 55.7156 19.0634 54.6605C15.0008 51.8873 12.7729 47.6036 12.7783 43.276C13.6547 47.4204 17.1392 51.3474 21.0358 53.2907C21.4335 52.8453 21.7442 52.3293 21.9518 51.7694C22.4377 50.4613 22.4137 48.8166 21.5028 46.8878C20.5411 44.8518 17.6244 42.8576 15.0955 40.7049C13.8309 39.6285 12.6634 38.4957 11.9123 37.1795C11.4827 36.4266 11.2069 35.5972 11.1459 34.7195ZM41.972 40.0499C41.4801 40.7802 40.8277 41.3626 40.0786 41.8002C38.7703 42.5644 37.1932 42.9605 35.5603 43.2602C32.2938 43.8599 28.7721 44.1278 26.9216 45.4097C25.1686 46.6245 24.323 48.038 24.0899 49.4139C23.9901 50.0025 24.0016 50.6046 24.1238 51.189C28.4701 51.4548 33.4501 49.7961 36.2811 46.6453C34.1231 50.3957 30.0525 52.9913 25.1486 53.3613C26.8707 55.5741 30.3855 56.8088 34.5261 54.7781C36.4447 53.8374 38.9513 51.6943 40.5573 48.8038C41.9207 46.3497 42.6599 43.3786 41.972 40.0499ZM46.9082 46.9082H55.748V67.1543H46.9082V46.9082ZM58.3145 46.9082H67.1543V67.1543H58.3145V46.9082ZM21.6672 55.2663C21.1969 58.5529 22.3986 61.6852 22.3993 63.9881L24.9657 63.9872C24.9649 60.9495 23.8707 57.9844 24.2076 55.63C23.5877 54.7487 22.8915 54.6178 21.6672 55.2663Z" fill="#133A1B"/>
</svg>
