<svg width="91" height="90" viewBox="0 0 91 90" fill="none" xmlns="http://www.w3.org/2000/svg">
<path fill-rule="evenodd" clip-rule="evenodd" d="M65.9902 58.4811C65.63 54.522 64.902 50.9617 63.2791 48.2803L69.0633 42.6226C72.0382 42.434 74.8185 41.1106 76.8059 38.9372C78.7934 36.7638 79.8291 33.9141 79.6902 31.0013C79.5513 28.0886 78.2489 25.3456 76.0633 23.3625C73.8777 21.3795 70.9835 20.315 68.0036 20.398C66.5741 15.1372 59.1652 11.1262 50.2396 11.1262C42.3454 11.1262 35.636 14.2638 33.2055 18.6308C26.2346 19.2873 20.8542 23.5634 20.8542 28.7427C20.8542 34.3762 27.2204 38.9417 35.0729 38.9417C38.8513 38.9417 42.2847 37.8847 44.8327 36.1601C46.0195 38.311 47.3527 40.3814 48.8234 42.3574C50.3552 44.3972 52.217 46.5112 54.31 48.1338C56.0863 49.5078 58.1566 50.626 60.4259 50.9227C61.3511 52.8253 61.9085 55.4474 62.2118 58.8093C62.5625 62.6497 62.5625 67.1948 62.5625 72.3202V74.1746H66.3542V72.2553C66.3542 67.2059 66.3542 62.5014 65.9902 58.4811ZM60.7008 32.2363C60.6491 31.7039 60.4804 31.1888 60.206 30.7262C59.9317 30.2636 59.5584 29.8645 59.1116 29.5562C58.6649 29.248 58.1552 29.0379 57.6177 28.9404C57.0801 28.8428 56.5273 28.8602 55.9972 28.9912C54.1139 29.4482 52.1801 29.6762 50.2396 29.6699C49.523 29.6699 48.8196 29.6402 48.1333 29.5827C47.4621 29.5267 46.7877 29.6467 46.1796 29.9302C45.5715 30.2138 45.0516 30.6507 44.6734 31.196C43.2136 33.3044 39.7177 35.233 35.0729 35.233C31.869 35.233 29.12 34.2965 27.2621 32.9632C25.4004 31.6281 24.6459 30.0945 24.6459 28.7427C24.6459 26.3394 27.5142 22.8922 33.5676 22.3229C34.1848 22.2649 34.7779 22.0598 35.2952 21.7255C35.8125 21.3912 36.238 20.938 36.5346 20.4055C38.0304 17.7185 43.0544 14.8349 50.2396 14.8349C54.1507 14.8349 57.6011 15.7176 60.1321 17.0528C62.718 18.4176 63.9806 20.0383 64.337 21.3512C64.5549 22.1551 65.0428 22.864 65.7222 23.3641C66.4016 23.8642 67.2331 24.1264 68.0832 24.1086L68.25 24.1068C69.4585 24.107 70.6494 24.3898 71.7236 24.9315C72.7977 25.4732 73.7239 26.2582 74.425 27.221C75.1261 28.1838 75.5818 29.2966 75.7541 30.4665C75.9265 31.6365 75.8104 32.8299 75.4157 33.9471C75.0209 35.0643 74.3589 36.0731 73.4848 36.8893C72.6107 37.7056 71.5498 38.3056 70.3905 38.6396C69.2312 38.9735 68.0072 39.0316 66.8203 38.809C65.6334 38.5864 64.5181 38.0896 63.5673 37.3599L62.9303 36.811C61.6588 35.591 60.8691 33.9707 60.7008 32.2363ZM58.6154 37.4415C57.673 35.9743 57.0945 34.3117 56.9262 32.5868C55.7356 32.8816 54.4825 33.0986 53.1819 33.2302C51.3972 33.4114 49.5989 33.4275 47.811 33.2785C47.7646 33.3458 47.7172 33.4126 47.6688 33.4787C47.8736 33.8644 48.1428 34.3614 48.4727 34.9381C49.5565 36.8461 50.7647 38.6839 52.0899 40.44V40.1693C54.1848 40.1693 56.384 39.0622 58.2078 37.7438C58.3481 37.6436 58.4846 37.5435 58.6154 37.4415ZM54.7612 43.5312C55.3792 44.1506 56.0124 44.7236 56.6627 45.2261C57.5973 45.9493 58.5092 46.4908 59.3927 46.8394L64.3579 41.981C63.1962 41.5667 62.1114 40.9698 61.1463 40.2138C60.9283 40.3844 60.6989 40.5568 60.46 40.7293C58.9889 41.79 57.0058 42.9638 54.7612 43.5312Z" fill="#133A1B"/>
<path fill-rule="evenodd" clip-rule="evenodd" d="M34.1285 47.2863C34.1292 47.8951 34.0072 48.4981 33.7696 49.0607C33.532 49.6234 33.1834 50.1348 32.7437 50.5657C32.304 50.9967 31.7819 51.3387 31.2071 51.5722C30.6323 51.8057 30.0161 51.9262 29.3937 51.9269C28.7713 51.9275 28.1548 51.8082 27.5796 51.5757C27.0043 51.3433 26.4815 51.0024 26.0409 50.5723C25.6004 50.1423 25.2507 49.6315 25.012 49.0693C24.7732 48.5071 24.65 47.9044 24.6494 47.2956C24.6481 46.0661 25.1463 44.8864 26.0342 44.0161C26.9222 43.1459 28.1272 42.6563 29.3842 42.655C30.6412 42.6538 31.8473 43.141 32.737 44.0096C33.6267 44.8781 34.1273 46.0568 34.1285 47.2863ZM30.3369 47.29C30.337 47.4118 30.3126 47.5324 30.2651 47.6449C30.2176 47.7574 30.1478 47.8597 30.0599 47.9459C29.972 48.0321 29.8675 48.1005 29.7526 48.1472C29.6376 48.1939 29.5144 48.218 29.3899 48.2181C29.2654 48.2182 29.1421 48.1944 29.0271 48.1479C28.912 48.1014 28.8075 48.0332 28.7193 47.9472C28.6312 47.8612 28.5613 47.7591 28.5136 47.6466C28.4658 47.5342 28.4412 47.4136 28.441 47.2919C28.4408 47.046 28.5404 46.81 28.718 46.636C28.8956 46.4619 29.1366 46.364 29.388 46.3638C29.6394 46.3635 29.8806 46.461 30.0586 46.6347C30.2365 46.8084 30.3366 47.0441 30.3369 47.29ZM20.8577 54.7038C20.8583 55.3126 20.7364 55.9155 20.4987 56.4782C20.2611 57.0409 19.9125 57.5523 19.4729 57.9832C19.0332 58.4141 18.5111 58.7561 17.9363 58.9896C17.3615 59.2232 16.7453 59.3437 16.1229 59.3443C15.5005 59.3449 14.884 59.2256 14.3087 58.9932C13.7335 58.7608 13.2106 58.4198 12.7701 57.9898C12.3295 57.5597 11.9799 57.049 11.7411 56.4868C11.5024 55.9245 11.3792 55.3218 11.3785 54.713C11.3773 53.4835 11.8754 52.3039 12.7634 51.4336C13.6513 50.5633 14.8564 50.0737 16.1134 50.0725C17.3704 50.0713 18.5764 50.5585 19.4662 51.427C20.3559 52.2956 20.8565 53.4742 20.8577 54.7038ZM17.066 54.7075C17.066 54.9534 16.9662 55.1892 16.7884 55.3631C16.6106 55.537 16.3695 55.6347 16.1181 55.6347C15.8667 55.6347 15.6256 55.537 15.4478 55.3631C15.2701 55.1892 15.1702 54.9534 15.1702 54.7075C15.1702 54.4616 15.2701 54.2257 15.4478 54.0519C15.6256 53.878 15.8667 53.7803 16.1181 53.7803C16.3695 53.7803 16.6106 53.878 16.7884 54.0519C16.9662 54.2257 17.066 54.4616 17.066 54.7075ZM48.3511 59.3434C49.6081 59.3424 50.8132 58.853 51.7014 57.9829C52.5895 57.1128 53.0879 55.9333 53.0869 54.7038C53.0859 53.4742 52.5856 52.2955 51.696 51.4268C50.8064 50.5581 49.6005 50.0706 48.3435 50.0716C47.0865 50.0725 45.8814 50.5619 44.9932 51.432C44.1051 52.3021 43.6067 53.4817 43.6077 54.7112C43.6087 55.9407 44.109 57.1195 44.9986 57.9882C45.8881 58.8569 47.0941 59.3444 48.3511 59.3434ZM48.3473 55.6347C48.5987 55.6347 48.8398 55.537 49.0176 55.3631C49.1953 55.1892 49.2952 54.9534 49.2952 54.7075C49.2952 54.4616 49.1953 54.2257 49.0176 54.0519C48.8398 53.878 48.5987 53.7803 48.3473 53.7803C48.0959 53.7803 47.8548 53.878 47.677 54.0519C47.4992 54.2257 47.3994 54.4616 47.3994 54.7075C47.3994 54.9534 47.4992 55.1892 47.677 55.3631C47.8548 55.537 48.0959 55.6347 48.3473 55.6347Z" fill="#133A1B"/>
<path d="M28.4375 53.7766C29.4431 53.7766 30.4075 54.1674 31.1186 54.8629C31.8297 55.5584 32.2292 56.5017 32.2292 57.4853V61.1941H36.0208C37.0264 61.1941 37.9909 61.5848 38.7019 62.2803C39.413 62.9758 39.8125 63.9192 39.8125 64.9028C39.8125 65.8864 39.413 66.8297 38.7019 67.5253C37.9909 68.2208 37.0264 68.6115 36.0208 68.6115H28.4375C27.4319 68.6115 26.4675 68.2208 25.7564 67.5253C25.0453 66.8297 24.6458 65.8864 24.6458 64.9028V57.4853C24.6458 56.5017 25.0453 55.5584 25.7564 54.8629C26.4675 54.1674 27.4319 53.7766 28.4375 53.7766ZM18.9583 64.9028C18.9583 63.9192 18.5589 62.9758 17.8478 62.2803C17.1367 61.5848 16.1723 61.1941 15.1667 61.1941C14.1611 61.1941 13.1966 61.5848 12.4856 62.2803C11.7745 62.9758 11.375 63.9192 11.375 64.9028V74.1746C11.375 75.1582 11.7745 76.1016 12.4856 76.7971C13.1966 77.4926 14.1611 77.8833 15.1667 77.8833H22.75C23.7556 77.8833 24.72 77.4926 25.4311 76.7971C26.1422 76.1016 26.5417 75.1582 26.5417 74.1746C26.5417 73.191 26.1422 72.2477 25.4311 71.5521C24.72 70.8566 23.7556 70.4659 22.75 70.4659H18.9583V64.9028ZM49.2917 61.1941C48.286 61.1941 47.3216 61.5848 46.6105 62.2803C45.8995 62.9758 45.5 63.9192 45.5 64.9028V70.4659H41.7083C40.7027 70.4659 39.7383 70.8566 39.0272 71.5521C38.3161 72.2477 37.9167 73.191 37.9167 74.1746C37.9167 75.1582 38.3161 76.1016 39.0272 76.7971C39.7383 77.4926 40.7027 77.8833 41.7083 77.8833H49.2917C50.2973 77.8833 51.2617 77.4926 51.9728 76.7971C52.6838 76.1016 53.0833 75.1582 53.0833 74.1746V64.9028C53.0833 63.9192 52.6838 62.9758 51.9728 62.2803C51.2617 61.5848 50.2973 61.1941 49.2917 61.1941Z" fill="#133A1B"/>
</svg>
