<svg width="538" height="200" viewBox="0 0 538 200" fill="none" xmlns="http://www.w3.org/2000/svg">
<path d="M49.4197 46.584C55.0517 46.584 59.6171 47.4373 63.1157 49.144C66.6144 50.7653 69.8144 52.6853 72.7157 54.904C73.8251 55.7573 74.6784 56.184 75.2757 56.184C76.8971 56.184 77.9637 53.5813 78.4757 48.376H81.4197C81.2491 51.6187 81.1211 55.544 81.0357 60.152C80.9504 64.6747 80.9077 70.7333 80.9077 78.328H77.9637C77.3664 74.232 76.5557 70.4347 75.5317 66.936C74.5931 63.4373 72.9291 60.4507 70.5397 57.976C68.2357 55.2453 65.2064 53.112 61.4517 51.576C57.7824 50.04 54.0277 49.272 50.1877 49.272C45.7504 49.272 41.8251 50.3813 38.4117 52.6C34.9984 54.7333 32.0971 57.8053 29.7077 61.816C27.4037 65.8267 25.6117 70.5627 24.3317 76.024C23.1371 81.4 22.5397 87.3307 22.5397 93.816C22.5397 109.176 24.8864 120.44 29.5797 127.608C34.3584 134.691 41.5264 138.232 51.0837 138.232C53.8144 138.232 56.1611 137.848 58.1237 137.08C60.1717 136.312 61.7931 135.544 62.9877 134.776C64.4384 133.752 65.3771 132.771 65.8037 131.832C66.2304 130.808 66.4437 129.485 66.4437 127.864V115.448C66.4437 111.779 66.1024 109.091 65.4197 107.384C64.8224 105.592 63.5851 104.397 61.7077 103.8C59.8304 103.117 57.0997 102.733 53.5157 102.648V100.088C55.1371 100.173 57.0571 100.259 59.2757 100.344C61.4944 100.344 63.7984 100.387 66.1877 100.472C68.6624 100.472 70.8811 100.472 72.8437 100.472C75.9157 100.472 78.6891 100.429 81.1637 100.344C83.7237 100.259 85.8144 100.173 87.4357 100.088V102.648C85.6437 102.733 84.2784 103.032 83.3397 103.544C82.4864 104.056 81.8891 105.08 81.5477 106.616C81.2917 108.152 81.1637 110.499 81.1637 113.656V139H78.6037C78.5184 137.549 78.1771 135.971 77.5797 134.264C77.0677 132.557 76.2571 131.704 75.1477 131.704C74.5504 131.704 73.9104 131.832 73.2277 132.088C72.6304 132.344 71.5637 132.984 70.0277 134.008C67.0411 136.056 63.9264 137.72 60.6837 139C57.4411 140.195 53.7717 140.792 49.6757 140.792C40.5451 140.792 32.7371 139 26.2517 135.416C19.7664 131.747 14.8171 126.499 11.4037 119.672C8.07572 112.76 6.41172 104.568 6.41172 95.096C6.41172 85.1973 8.24639 76.6213 11.9157 69.368C15.6704 62.1147 20.7477 56.5253 27.1477 52.6C33.6331 48.5893 41.0571 46.584 49.4197 46.584ZM126.287 86C128.22 86 129.853 86.4 131.187 87.2C132.587 88 133.62 89.0333 134.287 90.3C135.02 91.5 135.387 92.8667 135.387 94.4C135.387 96.3333 134.787 98 133.587 99.4C132.453 100.733 130.92 101.4 128.987 101.4C127.32 101.4 125.887 100.9 124.687 99.9C123.553 98.9 122.987 97.5333 122.987 95.8C122.987 94.3333 123.353 93.1 124.087 92.1C124.887 91.0333 125.787 90.2 126.787 89.6C126.12 89.0667 125.32 88.8333 124.387 88.9C122.587 88.9667 120.92 89.5667 119.387 90.7C117.853 91.7667 116.553 93.1667 115.487 94.9C114.42 96.5667 113.587 98.3667 112.987 100.3C112.387 102.233 112.087 104.033 112.087 105.7V128.7C112.087 131.967 112.987 134.167 114.787 135.3C116.587 136.367 119.087 136.9 122.287 136.9V139C120.753 138.933 118.553 138.867 115.687 138.8C112.887 138.667 109.92 138.6 106.787 138.6C104.387 138.6 101.987 138.667 99.5867 138.8C97.1867 138.867 95.3534 138.933 94.0867 139V136.9C96.6867 136.9 98.5201 136.4 99.5867 135.4C100.72 134.4 101.287 132.5 101.287 129.7V98.3C101.287 95.3 100.787 93.1 99.7867 91.7C98.7867 90.2333 96.8867 89.5 94.0867 89.5V87.4C96.2201 87.6 98.2867 87.7 100.287 87.7C102.553 87.7 104.653 87.6 106.587 87.4C108.587 87.1333 110.42 86.7667 112.087 86.3V97.8C112.887 95.8667 113.953 94 115.287 92.2C116.62 90.4 118.22 88.9333 120.087 87.8C121.953 86.6 124.02 86 126.287 86ZM162.344 86C168.21 86 172.81 87.7667 176.144 91.3C179.477 94.8333 181.144 100.433 181.144 108.1H146.644L146.444 106.2H170.544C170.61 102.933 170.344 99.9333 169.744 97.2C169.144 94.4 168.21 92.1667 166.944 90.5C165.677 88.8333 164.01 88 161.944 88C159.077 88 156.577 89.5333 154.444 92.6C152.377 95.6 151.11 100.433 150.644 107.1L150.944 107.6C150.877 108.533 150.81 109.567 150.744 110.7C150.677 111.767 150.644 112.833 150.644 113.9C150.644 118.5 151.344 122.367 152.744 125.5C154.144 128.633 155.977 131 158.244 132.6C160.51 134.133 162.81 134.9 165.144 134.9C166.944 134.9 168.677 134.633 170.344 134.1C172.077 133.5 173.71 132.533 175.244 131.2C176.777 129.8 178.144 127.9 179.344 125.5L181.344 126.3C180.544 128.567 179.31 130.8 177.644 133C175.977 135.2 173.844 137 171.244 138.4C168.644 139.733 165.61 140.4 162.144 140.4C157.477 140.4 153.41 139.367 149.944 137.3C146.477 135.167 143.81 132.133 141.944 128.2C140.077 124.267 139.144 119.6 139.144 114.2C139.144 108.267 140.11 103.2 142.044 99C143.977 94.8 146.677 91.6 150.144 89.4C153.677 87.1333 157.744 86 162.344 86ZM212.832 86C218.699 86 223.299 87.7667 226.632 91.3C229.965 94.8333 231.632 100.433 231.632 108.1H197.132L196.932 106.2H221.032C221.099 102.933 220.832 99.9333 220.232 97.2C219.632 94.4 218.699 92.1667 217.432 90.5C216.165 88.8333 214.499 88 212.432 88C209.565 88 207.065 89.5333 204.932 92.6C202.865 95.6 201.599 100.433 201.132 107.1L201.432 107.6C201.365 108.533 201.299 109.567 201.232 110.7C201.165 111.767 201.132 112.833 201.132 113.9C201.132 118.5 201.832 122.367 203.232 125.5C204.632 128.633 206.465 131 208.732 132.6C210.999 134.133 213.299 134.9 215.632 134.9C217.432 134.9 219.165 134.633 220.832 134.1C222.565 133.5 224.199 132.533 225.732 131.2C227.265 129.8 228.632 127.9 229.832 125.5L231.832 126.3C231.032 128.567 229.799 130.8 228.132 133C226.465 135.2 224.332 137 221.732 138.4C219.132 139.733 216.099 140.4 212.632 140.4C207.965 140.4 203.899 139.367 200.432 137.3C196.965 135.167 194.299 132.133 192.432 128.2C190.565 124.267 189.632 119.6 189.632 114.2C189.632 108.267 190.599 103.2 192.532 99C194.465 94.8 197.165 91.6 200.632 89.4C204.165 87.1333 208.232 86 212.832 86ZM273.125 86C275.792 86 277.958 86.3667 279.625 87.1C281.358 87.7667 282.792 88.7 283.925 89.9C285.125 91.1667 285.958 92.8 286.425 94.8C286.958 96.8 287.225 99.5 287.225 102.9V129.7C287.225 132.5 287.758 134.4 288.825 135.4C289.958 136.4 291.825 136.9 294.425 136.9V139C293.292 138.933 291.525 138.867 289.125 138.8C286.725 138.667 284.358 138.6 282.025 138.6C279.758 138.6 277.492 138.667 275.225 138.8C273.025 138.867 271.358 138.933 270.225 139V136.9C272.492 136.9 274.092 136.4 275.025 135.4C275.958 134.4 276.425 132.5 276.425 129.7V100.1C276.425 98.1667 276.258 96.4333 275.925 94.9C275.592 93.3 274.892 92.0333 273.825 91.1C272.758 90.1 271.158 89.6 269.025 89.6C266.558 89.6 264.358 90.3 262.425 91.7C260.558 93.1 259.058 95.0333 257.925 97.5C256.858 99.9 256.325 102.6 256.325 105.6V129.7C256.325 132.5 256.792 134.4 257.725 135.4C258.725 136.4 260.325 136.9 262.525 136.9V139C261.458 138.933 259.825 138.867 257.625 138.8C255.492 138.667 253.258 138.6 250.925 138.6C248.658 138.6 246.292 138.667 243.825 138.8C241.358 138.867 239.525 138.933 238.325 139V136.9C240.925 136.9 242.758 136.4 243.825 135.4C244.958 134.4 245.525 132.5 245.525 129.7V98.3C245.525 95.3 245.025 93.1 244.025 91.7C243.025 90.2333 241.125 89.5 238.325 89.5V87.4C240.458 87.6 242.525 87.7 244.525 87.7C246.792 87.7 248.892 87.6 250.825 87.4C252.825 87.1333 254.658 86.7667 256.325 86.3V97.2C258.058 93.0667 260.425 90.1667 263.425 88.5C266.492 86.8333 269.725 86 273.125 86ZM344.202 87.4V89.4C342.936 89.6 341.736 90.2667 340.602 91.4C339.536 92.4667 338.536 94.3333 337.602 97L321.802 139.4C321.269 139.4 320.702 139.4 320.102 139.4C319.569 139.4 319.036 139.4 318.502 139.4L300.302 95.1C299.236 92.5 298.169 90.9333 297.102 90.4C296.102 89.8 295.236 89.5 294.502 89.5V87.4C296.102 87.5333 297.736 87.6667 299.402 87.8C301.136 87.8667 303.036 87.9 305.102 87.9C307.169 87.9 309.336 87.8667 311.602 87.8C313.936 87.6667 316.102 87.5333 318.102 87.4V89.5C316.502 89.5 315.069 89.6 313.802 89.8C312.602 90 311.802 90.6 311.402 91.6C311.069 92.5333 311.302 94.1667 312.102 96.5L324.402 127.5L323.602 128.3L333.902 101C334.902 98.3333 335.302 96.2 335.102 94.6C334.902 92.9333 334.202 91.7 333.002 90.9C331.802 90.0333 330.069 89.5333 327.802 89.4V87.4C328.936 87.4667 329.969 87.5333 330.902 87.6C331.902 87.6 332.836 87.6333 333.702 87.7C334.636 87.7 335.602 87.7 336.602 87.7C338.069 87.7 339.436 87.6667 340.702 87.6C342.036 87.5333 343.202 87.4667 344.202 87.4ZM359.114 62.2C361.181 62.2 362.914 62.8667 364.314 64.2C365.714 65.4667 366.414 67.0667 366.414 69C366.414 70.9333 365.714 72.5667 364.314 73.9C362.914 75.1667 361.181 75.8 359.114 75.8C357.047 75.8 355.314 75.1667 353.914 73.9C352.514 72.5667 351.814 70.9333 351.814 69C351.814 67.0667 352.514 65.4667 353.914 64.2C355.314 62.8667 357.047 62.2 359.114 62.2ZM365.114 86.3V129.7C365.114 132.5 365.647 134.4 366.714 135.4C367.847 136.4 369.714 136.9 372.314 136.9V139C371.181 138.933 369.414 138.867 367.014 138.8C364.681 138.667 362.281 138.6 359.814 138.6C357.481 138.6 355.081 138.667 352.614 138.8C350.147 138.867 348.314 138.933 347.114 139V136.9C349.714 136.9 351.547 136.4 352.614 135.4C353.747 134.4 354.314 132.5 354.314 129.7V98.3C354.314 95.3 353.814 93.1 352.814 91.7C351.814 90.2333 349.914 89.5 347.114 89.5V87.4C349.247 87.6 351.314 87.7 353.314 87.7C355.581 87.7 357.681 87.6 359.614 87.4C361.614 87.1333 363.447 86.7667 365.114 86.3ZM395.695 86C398.361 86 400.661 86.4333 402.595 87.3C404.595 88.1 406.028 88.8333 406.895 89.5C409.095 91.2333 410.461 90.1 410.995 86.1H413.195C413.061 87.9667 412.961 90.2333 412.895 92.9C412.828 95.5 412.795 98.9667 412.795 103.3H410.595C410.195 100.833 409.495 98.4333 408.495 96.1C407.561 93.7667 406.161 91.8333 404.295 90.3C402.495 88.7667 400.128 88 397.195 88C394.995 88 393.161 88.6333 391.695 89.9C390.228 91.1 389.495 92.9 389.495 95.3C389.495 97.3 390.095 99.0333 391.295 100.5C392.495 101.967 394.028 103.333 395.895 104.6C397.828 105.867 399.895 107.233 402.095 108.7C404.561 110.367 406.761 112.033 408.695 113.7C410.695 115.3 412.261 117.1 413.395 119.1C414.595 121.1 415.195 123.433 415.195 126.1C415.195 129.167 414.361 131.767 412.695 133.9C411.095 136.033 408.961 137.667 406.295 138.8C403.628 139.867 400.695 140.4 397.495 140.4C395.895 140.4 394.395 140.233 392.995 139.9C391.595 139.633 390.295 139.267 389.095 138.8C388.361 138.4 387.628 138 386.895 137.6C386.228 137.133 385.561 136.7 384.895 136.3C384.228 135.833 383.628 135.9 383.095 136.5C382.561 137.1 382.161 138.167 381.895 139.7H379.695C379.828 137.567 379.928 134.967 379.995 131.9C380.061 128.833 380.095 124.767 380.095 119.7H382.295C382.761 123.367 383.461 126.6 384.395 129.4C385.328 132.2 386.695 134.4 388.495 136C390.361 137.533 392.895 138.3 396.095 138.3C397.361 138.3 398.628 138.033 399.895 137.5C401.161 136.9 402.195 135.967 402.995 134.7C403.861 133.433 404.295 131.733 404.295 129.6C404.295 126.667 403.261 124.267 401.195 122.4C399.195 120.467 396.595 118.433 393.395 116.3C391.128 114.7 388.961 113.133 386.895 111.6C384.895 110 383.261 108.233 381.995 106.3C380.728 104.3 380.095 101.933 380.095 99.2C380.095 96.2 380.795 93.7333 382.195 91.8C383.661 89.8667 385.595 88.4333 387.995 87.5C390.395 86.5 392.961 86 395.695 86ZM439.809 70.9V87.5H453.609V89.5H439.809V128.8C439.809 131.533 440.309 133.467 441.309 134.6C442.309 135.733 443.743 136.3 445.609 136.3C447.343 136.3 448.876 135.6 450.209 134.2C451.609 132.8 452.809 130.433 453.809 127.1L455.709 127.8C454.909 131.333 453.476 134.333 451.409 136.8C449.409 139.2 446.443 140.4 442.509 140.4C440.243 140.4 438.343 140.1 436.809 139.5C435.276 138.967 433.943 138.167 432.809 137.1C431.343 135.567 430.343 133.733 429.809 131.6C429.276 129.467 429.009 126.633 429.009 123.1V89.5H419.809V87.5H429.009V72.9C431.076 72.8333 433.009 72.6667 434.809 72.4C436.609 72.0667 438.276 71.5667 439.809 70.9ZM498.127 47.864L529.359 128.248C530.554 131.405 531.919 133.539 533.455 134.648C535.077 135.757 536.57 136.355 537.935 136.44V139C535.887 138.829 533.455 138.744 530.639 138.744C527.909 138.659 525.135 138.616 522.319 138.616C518.735 138.616 515.407 138.659 512.335 138.744C509.263 138.744 506.789 138.829 504.911 139V136.44C509.263 136.269 511.994 135.544 513.103 134.264C514.298 132.899 514.042 130.04 512.335 125.688L489.295 63.48L491.343 61.176L470.095 116.728C468.559 120.568 467.621 123.768 467.279 126.328C467.023 128.888 467.237 130.893 467.919 132.344C468.687 133.795 469.967 134.819 471.759 135.416C473.551 136.013 475.77 136.355 478.415 136.44V139C475.855 138.829 473.253 138.744 470.607 138.744C468.047 138.659 465.615 138.616 463.311 138.616C461.263 138.616 459.429 138.659 457.807 138.744C456.271 138.744 454.863 138.829 453.583 139V136.44C455.375 136.013 457.167 134.947 458.959 133.24C460.751 131.533 462.458 128.632 464.079 124.536L493.775 47.864C494.458 47.864 495.183 47.864 495.951 47.864C496.719 47.864 497.445 47.864 498.127 47.864ZM511.567 102.136V104.696H473.423L474.703 102.136H511.567Z" fill="#133A1B"/>
<path d="M248.721 18.016C248.593 19.232 248.497 20.416 248.433 21.568C248.401 22.688 248.385 23.552 248.385 24.16C248.385 24.928 248.401 25.648 248.433 26.32C248.465 26.992 248.497 27.584 248.529 28.096H247.425C247.201 25.856 246.897 24.096 246.513 22.816C246.129 21.504 245.457 20.56 244.497 19.984C243.537 19.408 242.049 19.12 240.033 19.12H237.441V46.432C237.441 47.712 237.553 48.672 237.777 49.312C238.033 49.952 238.513 50.384 239.217 50.608C239.921 50.832 240.945 50.976 242.289 51.04V52C241.457 51.936 240.401 51.904 239.121 51.904C237.841 51.872 236.545 51.856 235.233 51.856C233.793 51.856 232.433 51.872 231.153 51.904C229.905 51.904 228.897 51.936 228.129 52V51.04C229.473 50.976 230.497 50.832 231.201 50.608C231.905 50.384 232.369 49.952 232.593 49.312C232.849 48.672 232.977 47.712 232.977 46.432V19.12H230.385C228.401 19.12 226.913 19.408 225.921 19.984C224.961 20.56 224.289 21.504 223.905 22.816C223.521 24.096 223.217 25.856 222.993 28.096H221.889C221.953 27.584 221.985 26.992 221.985 26.32C222.017 25.648 222.033 24.928 222.033 24.16C222.033 23.552 222.001 22.688 221.937 21.568C221.905 20.416 221.825 19.232 221.697 18.016C223.041 18.048 224.497 18.08 226.065 18.112C227.665 18.144 229.265 18.16 230.865 18.16C232.465 18.16 233.921 18.16 235.233 18.16C236.545 18.16 237.985 18.16 239.553 18.16C241.153 18.16 242.753 18.144 244.353 18.112C245.953 18.08 247.409 18.048 248.721 18.016ZM272.197 52V51.04C273.285 50.976 274.101 50.848 274.645 50.656C275.221 50.464 275.605 50.08 275.797 49.504C275.989 48.928 276.085 48.064 276.085 46.912V23.104C276.085 21.92 275.989 21.056 275.797 20.512C275.605 19.936 275.221 19.552 274.645 19.36C274.101 19.136 273.285 19.008 272.197 18.976V18.016C272.933 18.048 273.861 18.08 274.981 18.112C276.101 18.144 277.205 18.16 278.293 18.16C279.541 18.16 280.709 18.144 281.797 18.112C282.885 18.08 283.765 18.048 284.437 18.016V18.976C283.349 19.008 282.517 19.136 281.941 19.36C281.397 19.552 281.029 19.936 280.837 20.512C280.645 21.056 280.549 21.92 280.549 23.104V46.912C280.549 48.064 280.645 48.928 280.837 49.504C281.029 50.08 281.397 50.464 281.941 50.656C282.517 50.848 283.349 50.976 284.437 51.04V52C283.765 51.936 282.885 51.904 281.797 51.904C280.709 51.872 279.541 51.856 278.293 51.856C277.205 51.856 276.101 51.872 274.981 51.904C273.861 51.904 272.933 51.936 272.197 52ZM252.133 52V51.04C253.221 50.976 254.037 50.848 254.581 50.656C255.157 50.464 255.541 50.08 255.733 49.504C255.925 48.928 256.021 48.064 256.021 46.912V23.104C256.021 21.92 255.925 21.056 255.733 20.512C255.541 19.936 255.157 19.552 254.581 19.36C254.037 19.136 253.221 19.008 252.133 18.976V18.016C252.805 18.048 253.685 18.08 254.773 18.112C255.861 18.144 257.029 18.16 258.277 18.16C259.397 18.16 260.501 18.144 261.589 18.112C262.709 18.08 263.637 18.048 264.373 18.016V18.976C263.285 19.008 262.453 19.136 261.877 19.36C261.333 19.552 260.965 19.936 260.773 20.512C260.581 21.056 260.485 21.92 260.485 23.104V46.912C260.485 48.064 260.581 48.928 260.773 49.504C260.965 50.08 261.333 50.464 261.877 50.656C262.453 50.848 263.285 50.976 264.373 51.04V52C263.637 51.936 262.709 51.904 261.589 51.904C260.501 51.872 259.397 51.856 258.277 51.856C257.029 51.856 255.861 51.872 254.773 51.904C253.685 51.904 252.805 51.936 252.133 52ZM258.805 35.392V34.432H277.765V35.392H258.805ZM312.413 18.016C312.285 19.136 312.189 20.224 312.125 21.28C312.093 22.336 312.077 23.136 312.077 23.68C312.077 24.256 312.093 24.816 312.125 25.36C312.157 25.872 312.189 26.304 312.221 26.656H311.117C310.925 24.768 310.653 23.28 310.301 22.192C309.949 21.072 309.341 20.288 308.477 19.84C307.645 19.36 306.381 19.12 304.685 19.12H300.701C299.613 19.12 298.781 19.216 298.205 19.408C297.661 19.568 297.293 19.936 297.101 20.512C296.909 21.056 296.813 21.92 296.813 23.104V46.912C296.813 48.064 296.909 48.928 297.101 49.504C297.293 50.08 297.661 50.464 298.205 50.656C298.781 50.816 299.613 50.896 300.701 50.896H304.205C306.221 50.896 307.741 50.624 308.765 50.08C309.821 49.536 310.573 48.656 311.021 47.44C311.501 46.192 311.853 44.512 312.077 42.4H313.181C313.085 43.264 313.037 44.416 313.037 45.856C313.037 46.464 313.053 47.344 313.085 48.496C313.149 49.616 313.245 50.784 313.373 52C311.741 51.936 309.901 51.904 307.853 51.904C305.805 51.872 303.981 51.856 302.381 51.856C301.421 51.856 300.141 51.856 298.541 51.856C296.973 51.856 295.293 51.872 293.501 51.904C291.709 51.904 290.029 51.936 288.461 52V51.04C289.549 50.976 290.365 50.848 290.909 50.656C291.485 50.464 291.869 50.08 292.061 49.504C292.253 48.928 292.349 48.064 292.349 46.912V23.104C292.349 21.92 292.253 21.056 292.061 20.512C291.869 19.936 291.485 19.552 290.909 19.36C290.365 19.136 289.549 19.008 288.461 18.976V18.016C290.029 18.048 291.709 18.08 293.501 18.112C295.293 18.144 296.973 18.16 298.541 18.16C300.141 18.16 301.421 18.16 302.381 18.16C303.853 18.16 305.517 18.16 307.373 18.16C309.261 18.128 310.941 18.08 312.413 18.016ZM304.157 34.432C304.157 34.432 304.157 34.592 304.157 34.912C304.157 35.232 304.157 35.392 304.157 35.392H295.373C295.373 35.392 295.373 35.232 295.373 34.912C295.373 34.592 295.373 34.432 295.373 34.432H304.157ZM305.549 28.096C305.421 29.92 305.357 31.312 305.357 32.272C305.389 33.232 305.405 34.112 305.405 34.912C305.405 35.712 305.421 36.592 305.453 37.552C305.485 38.512 305.565 39.904 305.693 41.728H304.589C304.461 40.704 304.301 39.712 304.109 38.752C303.949 37.76 303.565 36.96 302.957 36.352C302.381 35.712 301.389 35.392 299.981 35.392V34.432C301.389 34.432 302.365 34.064 302.909 33.328C303.485 32.592 303.853 31.728 304.013 30.736C304.173 29.744 304.317 28.864 304.445 28.096H305.549Z" fill="#133A1B"/>
<line x1="200" y1="46" x2="100" y2="46" stroke="#133A1B" stroke-width="2"/>
<line x1="466" y1="46" x2="336" y2="46" stroke="#133A1B" stroke-width="2"/>
<path d="M141.487 176.227H147.261C148.49 176.227 149.556 176.426 150.459 176.825C151.363 177.223 152.059 177.813 152.547 178.595C153.043 179.368 153.292 180.32 153.292 181.451C153.292 182.289 153.112 183.05 152.754 183.734C152.404 184.417 151.92 184.991 151.302 185.455C150.683 185.911 149.967 186.224 149.153 186.395L148.628 186.59H142.464L142.439 185.309H147.603C148.531 185.309 149.304 185.13 149.922 184.771C150.541 184.413 151.005 183.941 151.314 183.355C151.631 182.761 151.79 182.127 151.79 181.451C151.79 180.646 151.615 179.95 151.265 179.364C150.923 178.77 150.415 178.314 149.739 177.997C149.064 177.679 148.238 177.521 147.261 177.521H142.989V194H141.487V176.227ZM152.461 194L147.859 186.053L149.471 186.041L154.061 193.841V194H152.461ZM184.34 192.718V194H174.342V192.718H184.34ZM174.794 176.227V194H173.292V176.227H174.794ZM183.095 184.198V185.479H174.342V184.198H183.095ZM184.279 176.227V177.521H174.342V176.227H184.279ZM213.459 189.63C213.459 189.142 213.378 188.706 213.215 188.324C213.053 187.941 212.784 187.599 212.41 187.298C212.043 186.989 211.547 186.704 210.92 186.444C210.302 186.175 209.529 185.911 208.601 185.65C207.714 185.398 206.912 185.121 206.196 184.82C205.48 184.519 204.866 184.173 204.353 183.783C203.848 183.392 203.462 182.936 203.193 182.416C202.925 181.887 202.791 181.272 202.791 180.572C202.791 179.889 202.937 179.266 203.23 178.705C203.523 178.143 203.934 177.659 204.463 177.252C205 176.845 205.631 176.532 206.355 176.312C207.087 176.092 207.889 175.982 208.76 175.982C210.005 175.982 211.079 176.218 211.982 176.69C212.894 177.162 213.598 177.801 214.094 178.607C214.599 179.404 214.851 180.3 214.851 181.292H213.35C213.35 180.519 213.167 179.832 212.8 179.229C212.442 178.619 211.921 178.143 211.238 177.801C210.562 177.451 209.736 177.276 208.76 177.276C207.783 177.276 206.961 177.427 206.294 177.728C205.635 178.021 205.134 178.416 204.792 178.912C204.459 179.4 204.292 179.946 204.292 180.548C204.292 180.971 204.373 181.362 204.536 181.72C204.699 182.07 204.963 182.399 205.33 182.708C205.704 183.01 206.196 183.294 206.807 183.563C207.417 183.823 208.17 184.072 209.065 184.308C210.009 184.568 210.847 184.857 211.58 185.174C212.312 185.492 212.931 185.858 213.435 186.273C213.94 186.68 214.322 187.156 214.583 187.701C214.843 188.246 214.973 188.881 214.973 189.605C214.973 190.33 214.819 190.981 214.509 191.559C214.208 192.128 213.781 192.612 213.228 193.011C212.682 193.41 212.035 193.715 211.287 193.927C210.546 194.138 209.736 194.244 208.857 194.244C208.068 194.244 207.283 194.142 206.501 193.939C205.72 193.736 205.004 193.422 204.353 192.999C203.71 192.568 203.193 192.014 202.803 191.339C202.42 190.663 202.229 189.858 202.229 188.922H203.718C203.718 189.671 203.869 190.301 204.17 190.814C204.471 191.327 204.87 191.742 205.366 192.059C205.871 192.376 206.424 192.608 207.026 192.755C207.637 192.893 208.247 192.962 208.857 192.962C209.793 192.962 210.603 192.824 211.287 192.547C211.978 192.271 212.511 191.884 212.886 191.388C213.268 190.883 213.459 190.297 213.459 189.63ZM235.926 176.227V194H234.425V176.227H235.926ZM261.494 194H257.465L257.49 192.718H261.494C262.771 192.718 263.87 192.433 264.79 191.864C265.717 191.286 266.433 190.488 266.938 189.471C267.443 188.454 267.695 187.274 267.695 185.931V184.271C267.695 183.246 267.548 182.318 267.255 181.488C266.971 180.658 266.56 179.95 266.022 179.364C265.485 178.77 264.842 178.314 264.094 177.997C263.353 177.679 262.523 177.521 261.604 177.521H257.392V176.227H261.604C262.71 176.227 263.723 176.418 264.643 176.8C265.571 177.175 266.372 177.72 267.048 178.436C267.731 179.144 268.256 179.994 268.623 180.987C268.997 181.98 269.184 183.087 269.184 184.308V185.931C269.184 187.152 268.997 188.259 268.623 189.251C268.256 190.244 267.731 191.095 267.048 191.803C266.364 192.511 265.555 193.056 264.619 193.438C263.683 193.813 262.641 194 261.494 194ZM258.137 176.227V194H256.635V176.227H258.137ZM299.939 192.718V194H289.942V192.718H299.939ZM290.394 176.227V194H288.892V176.227H290.394ZM298.694 184.198V185.479H289.942V184.198H298.694ZM299.878 176.227V177.521H289.942V176.227H299.878ZM332.233 176.227V194H330.719L320.502 178.814V194H319V176.227H320.502L330.744 191.412V176.227H332.233ZM363.721 188.458H365.222C365.1 189.654 364.771 190.688 364.233 191.559C363.696 192.421 362.964 193.084 362.036 193.548C361.108 194.012 359.989 194.244 358.679 194.244C357.67 194.244 356.755 194.053 355.933 193.67C355.119 193.288 354.419 192.747 353.833 192.047C353.247 191.339 352.795 190.493 352.478 189.508C352.161 188.523 352.002 187.429 352.002 186.224V184.002C352.002 182.798 352.161 181.708 352.478 180.731C352.795 179.746 353.251 178.9 353.845 178.192C354.439 177.484 355.151 176.939 355.981 176.556C356.812 176.174 357.747 175.982 358.789 175.982C360.05 175.982 361.141 176.214 362.061 176.678C362.98 177.134 363.704 177.793 364.233 178.656C364.771 179.518 365.1 180.56 365.222 181.781H363.721C363.607 180.82 363.354 180.007 362.964 179.339C362.573 178.672 362.032 178.163 361.34 177.813C360.657 177.455 359.806 177.276 358.789 177.276C357.959 177.276 357.218 177.435 356.567 177.752C355.916 178.07 355.363 178.526 354.907 179.12C354.451 179.706 354.102 180.41 353.857 181.231C353.621 182.053 353.503 182.969 353.503 183.978V186.224C353.503 187.201 353.617 188.1 353.845 188.922C354.073 189.744 354.407 190.456 354.846 191.058C355.294 191.66 355.839 192.128 356.482 192.462C357.125 192.796 357.857 192.962 358.679 192.962C359.729 192.962 360.604 192.796 361.304 192.462C362.012 192.12 362.561 191.616 362.952 190.948C363.342 190.281 363.599 189.451 363.721 188.458ZM395.807 192.718V194H385.809V192.718H395.807ZM386.261 176.227V194H384.759V176.227H386.261ZM394.562 184.198V185.479H385.809V184.198H394.562ZM395.746 176.227V177.521H385.809V176.227H395.746Z" fill="#133A1B"/>
</svg>
